<mxfile host="65bd71144e">
    <diagram id="6AkofqAw1BMXufgbrj4O" name="Page-1">
        <mxGraphModel dx="1119" dy="552" grid="1" gridSize="10" guides="1" tooltips="1" connect="1" arrows="1" fold="1" page="1" pageScale="1" pageWidth="827" pageHeight="1169" math="0" shadow="0">
            <root>
                <mxCell id="0"/>
                <mxCell id="1" parent="0"/>
                <mxCell id="2" value="quote" style="swimlane;fontStyle=0;childLayout=stackLayout;horizontal=1;startSize=30;horizontalStack=0;resizeParent=1;resizeParentMax=0;resizeLast=0;collapsible=1;marginBottom=0;rounded=0;" parent="1" vertex="1">
                    <mxGeometry x="280" y="80" width="160" height="180" as="geometry"/>
                </mxCell>
                <mxCell id="3" value="id INT, PK" style="text;strokeColor=#d6b656;fillColor=#fff2cc;align=left;verticalAlign=middle;spacingLeft=4;spacingRight=4;overflow=hidden;points=[[0,0.5],[1,0.5]];portConstraint=eastwest;rotatable=0;rounded=0;" parent="2" vertex="1">
                    <mxGeometry y="30" width="160" height="30" as="geometry"/>
                </mxCell>
                <mxCell id="4" value="quote VARCHAR(255)" style="text;strokeColor=none;fillColor=none;align=left;verticalAlign=middle;spacingLeft=4;spacingRight=4;overflow=hidden;points=[[0,0.5],[1,0.5]];portConstraint=eastwest;rotatable=0;rounded=0;" parent="2" vertex="1">
                    <mxGeometry y="60" width="160" height="30" as="geometry"/>
                </mxCell>
                <mxCell id="5" value="created_at DATETIME" style="text;strokeColor=none;fillColor=none;align=left;verticalAlign=middle;spacingLeft=4;spacingRight=4;overflow=hidden;points=[[0,0.5],[1,0.5]];portConstraint=eastwest;rotatable=0;rounded=0;" parent="2" vertex="1">
                    <mxGeometry y="90" width="160" height="30" as="geometry"/>
                </mxCell>
                <mxCell id="12" value="author_id INT, FK" style="text;strokeColor=#666666;fillColor=#f5f5f5;align=left;verticalAlign=middle;spacingLeft=4;spacingRight=4;overflow=hidden;points=[[0,0.5],[1,0.5]];portConstraint=eastwest;rotatable=0;fontColor=#333333;rounded=0;" parent="2" vertex="1">
                    <mxGeometry y="120" width="160" height="30" as="geometry"/>
                </mxCell>
                <mxCell id="25" value="owner_id INT, FK" style="text;strokeColor=#666666;fillColor=#f5f5f5;align=left;verticalAlign=middle;spacingLeft=4;spacingRight=4;overflow=hidden;points=[[0,0.5],[1,0.5]];portConstraint=eastwest;rotatable=0;fontColor=#333333;rounded=0;" parent="2" vertex="1">
                    <mxGeometry y="150" width="160" height="30" as="geometry"/>
                </mxCell>
                <mxCell id="6" value="author" style="swimlane;fontStyle=0;childLayout=stackLayout;horizontal=1;startSize=30;horizontalStack=0;resizeParent=1;resizeParentMax=0;resizeLast=0;collapsible=1;marginBottom=0;rounded=0;" parent="1" vertex="1">
                    <mxGeometry x="560" y="80" width="160" height="120" as="geometry"/>
                </mxCell>
                <mxCell id="7" value="id INT, PK" style="text;strokeColor=#d6b656;fillColor=#fff2cc;align=left;verticalAlign=middle;spacingLeft=4;spacingRight=4;overflow=hidden;points=[[0,0.5],[1,0.5]];portConstraint=eastwest;rotatable=0;rounded=0;" parent="6" vertex="1">
                    <mxGeometry y="30" width="160" height="30" as="geometry"/>
                </mxCell>
                <mxCell id="8" value="picture VARCHAR(255)" style="text;strokeColor=none;fillColor=none;align=left;verticalAlign=middle;spacingLeft=4;spacingRight=4;overflow=hidden;points=[[0,0.5],[1,0.5]];portConstraint=eastwest;rotatable=0;rounded=0;" parent="6" vertex="1">
                    <mxGeometry y="60" width="160" height="30" as="geometry"/>
                </mxCell>
                <mxCell id="24" value="name VARCHAR(150)" style="text;strokeColor=none;fillColor=none;align=left;verticalAlign=middle;spacingLeft=4;spacingRight=4;overflow=hidden;points=[[0,0.5],[1,0.5]];portConstraint=eastwest;rotatable=0;rounded=0;" parent="6" vertex="1">
                    <mxGeometry y="90" width="160" height="30" as="geometry"/>
                </mxCell>
                <mxCell id="15" style="edgeStyle=none;rounded=0;html=1;exitX=1;exitY=0.5;exitDx=0;exitDy=0;entryX=0;entryY=0.5;entryDx=0;entryDy=0;startArrow=ERmany;startFill=0;endArrow=ERmandOne;endFill=0;strokeColor=default;" parent="1" source="12" target="7" edge="1">
                    <mxGeometry relative="1" as="geometry">
                        <Array as="points">
                            <mxPoint x="500" y="215"/>
                            <mxPoint x="500" y="125"/>
                        </Array>
                    </mxGeometry>
                </mxCell>
                <mxCell id="17" value="user" style="swimlane;fontStyle=0;childLayout=stackLayout;horizontal=1;startSize=30;horizontalStack=0;resizeParent=1;resizeParentMax=0;resizeLast=0;collapsible=1;marginBottom=0;rounded=0;" parent="1" vertex="1">
                    <mxGeometry x="280" y="320" width="160" height="180" as="geometry"/>
                </mxCell>
                <mxCell id="18" value="id INT, PK" style="text;strokeColor=#d6b656;fillColor=#fff2cc;align=left;verticalAlign=middle;spacingLeft=4;spacingRight=4;overflow=hidden;points=[[0,0.5],[1,0.5]];portConstraint=eastwest;rotatable=0;rounded=0;" parent="17" vertex="1">
                    <mxGeometry y="30" width="160" height="30" as="geometry"/>
                </mxCell>
                <mxCell id="19" value="name VARCHAR(120)" style="text;strokeColor=none;fillColor=none;align=left;verticalAlign=middle;spacingLeft=4;spacingRight=4;overflow=hidden;points=[[0,0.5],[1,0.5]];portConstraint=eastwest;rotatable=0;rounded=0;" parent="17" vertex="1">
                    <mxGeometry y="60" width="160" height="30" as="geometry"/>
                </mxCell>
                <mxCell id="20" value="email VARCHAR(180)" style="text;strokeColor=none;fillColor=none;align=left;verticalAlign=middle;spacingLeft=4;spacingRight=4;overflow=hidden;points=[[0,0.5],[1,0.5]];portConstraint=eastwest;rotatable=0;rounded=0;" parent="17" vertex="1">
                    <mxGeometry y="90" width="160" height="30" as="geometry"/>
                </mxCell>
                <mxCell id="22" value="roles JSON" style="text;strokeColor=none;fillColor=none;align=left;verticalAlign=middle;spacingLeft=4;spacingRight=4;overflow=hidden;points=[[0,0.5],[1,0.5]];portConstraint=eastwest;rotatable=0;rounded=0;" parent="17" vertex="1">
                    <mxGeometry y="120" width="160" height="30" as="geometry"/>
                </mxCell>
                <mxCell id="23" value="password VARCHAR(255)" style="text;strokeColor=none;fillColor=none;align=left;verticalAlign=middle;spacingLeft=4;spacingRight=4;overflow=hidden;points=[[0,0.5],[1,0.5]];portConstraint=eastwest;rotatable=0;rounded=0;" parent="17" vertex="1">
                    <mxGeometry y="150" width="160" height="30" as="geometry"/>
                </mxCell>
                <mxCell id="27" style="edgeStyle=none;rounded=0;html=1;exitX=0;exitY=0.5;exitDx=0;exitDy=0;startArrow=ERmany;startFill=0;endArrow=ERmandOne;endFill=0;strokeColor=default;" parent="1" source="25" target="18" edge="1">
                    <mxGeometry relative="1" as="geometry">
                        <Array as="points">
                            <mxPoint x="240" y="245"/>
                            <mxPoint x="240" y="365"/>
                        </Array>
                    </mxGeometry>
                </mxCell>
            </root>
        </mxGraphModel>
    </diagram>
</mxfile>